<?xml version="1.0" encoding="UTF-8" standalone="no"?>
<!DOCTYPE svg PUBLIC "-//W3C//DTD SVG 1.1//EN" "http://www.w3.org/Graphics/SVG/1.1/DTD/svg11.dtd">
<svg viewBox="0 0 512 512" xmlns="http://www.w3.org/2000/svg" style="fill-rule:evenodd;clip-rule:evenodd;stroke-linejoin:round;stroke-miterlimit:1.41421">
  <circle cx="254.247" cy="165.65" r="129.753" style="fill:rgb(232,247,251)" transform="translate(-121.604 -12.419) scale(1.23312)"/>
  <path d="M378.393 333.137l-45.255 45.255 124.235 124.234c12.497 12.497 32.758 12.497 45.254 0 12.498-12.496 12.497-32.757 0-45.254L378.394 333.137z" style="fill:rgb(207,162,117)"/>
  <path d="M315.814 338.44c-15.003 12.787-31.933 23.319-50.187 30.914-57.379 23.873-126.217 17.664-178.538-16.563C34.095 318.124 0 256.563 0 192 0 129.272 32.64 67.523 85.642 32.165 116.761 11.405 153.796.18 191.379 0h1.242c59.283.282 117.374 29.24 153.215 77.153 35.614 47.609 47.504 112.243 30.045 170.22-7.546 25.06-20.511 48.4-37.472 68.408l17.14 17.14-22.627 22.627-17.108-17.108zM191.481 32c-48.832.233-96.888 23.892-126.822 63.17-35.204 46.19-42.855 111.868-17.099 165.704 21.612 45.175 65.326 79.056 114.632 88.354 49.842 9.399 103.707-6.46 140.515-41.763C333.676 277.76 352 235.293 352 192c0-52.224-27.187-103.72-71.401-133.215C254.737 41.53 223.588 32.149 192.519 32h-1.038z" style="fill:rgb(76,90,108);fill-rule:nonzero"/>
  <path d="M369.692 324.436a4 4 0 0 0-5.657 0l-39.598 39.598a3.999 3.999 0 0 0 0 5.657l8.7 8.701 45.256-45.255-8.701-8.7z" style="fill:rgb(216,216,216)"/>
</svg>
